RBDS012runT35_grf
version=1
nRows=18
nColumns=19
inDegrees=no
endheader
time	ground_force_r_vx	ground_force_r_vy	ground_force_r_vz	ground_force_r_px	ground_force_r_py	ground_force_r_pz	ground_force_r_mx	ground_force_r_my	ground_force_r_mz	ground_force_l_vx	ground_force_l_vy	ground_force_l_vz	ground_force_l_px	ground_force_l_py	ground_force_l_pz	ground_force_l_mx	ground_force_l_my	ground_force_l_mz
     14.99900000	    134.47317099	   1503.46051810	    -48.15102344	      2.11318824	      0.00000000	      1.09802832	      0.00000000	     11.94635007	     -0.00000000	      0.00000000	      0.00000000	      0.00000000	      0.00000000	      0.00000000	      0.00000000	      0.00000000	      0.00000000	      0.00000000
     15.00000000	    139.03774942	   1490.84077815	    -47.02333926	      2.10983292	      0.00000000	      1.09795668	      0.00000000	     11.81361769	     -0.00000000	      0.00000000	      0.00000000	      0.00000000	      0.00000000	      0.00000000	      0.00000000	      0.00000000	      0.00000000	      0.00000000
     15.00100000	    143.31634709	   1477.12586389	    -45.85421678	      2.10643255	      0.00000000	      1.09787834	      0.00000000	     11.67536903	     -0.00000000	      0.00000000	      0.00000000	      0.00000000	      0.00000000	      0.00000000	      0.00000000	      0.00000000	      0.00000000	      0.00000000
     15.00200000	    147.59494475	   1463.41094963	    -44.68509429	      2.10303219	      0.00000000	      1.09780000	      0.00000000	     11.53712038	     -0.00000000	      0.00000000	      0.00000000	      0.00000000	      0.00000000	      0.00000000	      0.00000000	      0.00000000	      0.00000000	      0.00000000
     15.00300000	    151.87354242	   1449.69603537	    -43.51597181	      2.09963182	      0.00000000	      1.09772167	      0.00000000	     11.39887173	     -0.00000000	      0.00000000	      0.00000000	      0.00000000	      0.00000000	      0.00000000	      0.00000000	      0.00000000	      0.00000000	      0.00000000
     15.00400000	    155.93374074	   1435.28060169	    -42.32990508	      2.09620512	      0.00000000	      1.09764097	      0.00000000	     11.25688765	     -0.00000000	      0.00000000	      0.00000000	      0.00000000	      0.00000000	      0.00000000	      0.00000000	      0.00000000	      0.00000000	      0.00000000
     15.00500000	    159.88473938	   1420.51490829	    -41.13536621	      2.09276525	      0.00000000	      1.09755908	      0.00000000	     11.11303586	     -0.00000000	      0.00000000	      0.00000000	      0.00000000	      0.00000000	      0.00000000	      0.00000000	      0.00000000	      0.00000000	      0.00000000
     15.00600000	    163.83573802	   1405.74921490	    -39.94082735	      2.08932539	      0.00000000	      1.09747720	      0.00000000	     10.96918407	     -0.00000000	      0.00000000	      0.00000000	      0.00000000	      0.00000000	      0.00000000	      0.00000000	      0.00000000	      0.00000000	      0.00000000
     15.00700000	    167.66308184	   1390.65073314	    -38.74355664	      2.08587526	      0.00000000	      1.09739545	      0.00000000	     10.82342363	     -0.00000000	      0.00000000	      0.00000000	      0.00000000	      0.00000000	      0.00000000	      0.00000000	      0.00000000	      0.00000000	      0.00000000
     15.00800000	    171.24311603	   1374.88667464	    -37.54082224	      2.08240463	      0.00000000	      1.09731395	      0.00000000	     10.67384587	     -0.00000000	      0.00000000	      0.00000000	      0.00000000	      0.00000000	      0.00000000	      0.00000000	      0.00000000	      0.00000000	      0.00000000
     15.00900000	    174.82315022	   1359.12261613	    -36.33808784	      2.07893400	      0.00000000	      1.09723246	      0.00000000	     10.52426811	     -0.00000000	      0.00000000	      0.00000000	      0.00000000	      0.00000000	      0.00000000	      0.00000000	      0.00000000	      0.00000000	      0.00000000
     15.01000000	    178.40318441	   1343.35855762	    -35.13535344	      2.07546336	      0.00000000	      1.09715097	      0.00000000	     10.37469036	     -0.00000000	      0.00000000	      0.00000000	      0.00000000	      0.00000000	      0.00000000	      0.00000000	      0.00000000	      0.00000000	      0.00000000
     15.01100000	    181.56833273	   1326.65767553	    -33.94230041	      2.07197392	      0.00000000	      1.09707449	      0.00000000	     10.21926349	     -0.00000000	      0.00000000	      0.00000000	      0.00000000	      0.00000000	      0.00000000	      0.00000000	      0.00000000	      0.00000000	      0.00000000
     15.01200000	    184.73348104	   1309.95679344	    -32.74924738	      2.06848448	      0.00000000	      1.09699802	      0.00000000	     10.06383662	     -0.00000000	      0.00000000	      0.00000000	      0.00000000	      0.00000000	      0.00000000	      0.00000000	      0.00000000	      0.00000000	      0.00000000
     15.01300000	    187.89862936	   1293.25591135	    -31.55619435	      2.06499504	      0.00000000	      1.09692155	      0.00000000	      9.90840975	     -0.00000000	      0.00000000	      0.00000000	      0.00000000	      0.00000000	      0.00000000	      0.00000000	      0.00000000	      0.00000000	      0.00000000
     15.01400000	    190.75851196	   1275.97827693	    -30.38154437	      2.06150310	      0.00000000	      1.09685190	      0.00000000	      9.74902180	     -0.00000000	      0.00000000	      0.00000000	      0.00000000	      0.00000000	      0.00000000	      0.00000000	      0.00000000	      0.00000000	      0.00000000
     15.01500000	    193.46576170	   1258.41226635	    -29.21609591	      2.05800992	      0.00000000	      1.09678565	      0.00000000	      9.58765330	     -0.00000000	      0.00000000	      0.00000000	      0.00000000	      0.00000000	      0.00000000	      0.00000000	      0.00000000	      0.00000000	      0.00000000
     15.01600000	    196.17301143	   1240.84625577	    -28.05064744	      2.05451674	      0.00000000	      1.09671941	      0.00000000	      9.42628480	     -0.00000000	      0.00000000	      0.00000000	      0.00000000	      0.00000000	      0.00000000	      0.00000000	      0.00000000	      0.00000000	      0.00000000
